<mxfile host="Electron" modified="2023-10-07T17:25:27.280Z" agent="Mozilla/5.0 (Windows NT 10.0; Win64; x64) AppleWebKit/537.36 (KHTML, like Gecko) draw.io/22.0.2 Chrome/114.0.5735.289 Electron/25.8.4 Safari/537.36" etag="Edac6AJy2fcmtw3Me9H9" version="22.0.2" type="device">
  <diagram name="Page-1" id="03018318-947c-dd8e-b7a3-06fadd420f32">
    <mxGraphModel dx="3296" dy="2506" grid="1" gridSize="10" guides="1" tooltips="1" connect="1" arrows="1" fold="1" page="1" pageScale="1" pageWidth="1100" pageHeight="850" background="#ffffff" math="0" shadow="0">
      <root>
        <mxCell id="0" />
        <mxCell id="1" parent="0" />
        <mxCell id="KMlDWxls2vxEovdgFh5I-21" style="edgeStyle=orthogonalEdgeStyle;rounded=0;orthogonalLoop=1;jettySize=auto;html=1;exitX=1;exitY=0.5;exitDx=0;exitDy=0;entryX=0;entryY=0.5;entryDx=0;entryDy=0;startArrow=classic;startFill=1;" edge="1" parent="1" source="KMlDWxls2vxEovdgFh5I-1" target="KMlDWxls2vxEovdgFh5I-9">
          <mxGeometry relative="1" as="geometry" />
        </mxCell>
        <mxCell id="KMlDWxls2vxEovdgFh5I-1" value="边缘服务器" style="ellipse;whiteSpace=wrap;html=1;aspect=fixed;fillColor=#b1ddf0;strokeColor=#10739e;" vertex="1" parent="1">
          <mxGeometry x="10" y="170" width="80" height="80" as="geometry" />
        </mxCell>
        <mxCell id="KMlDWxls2vxEovdgFh5I-19" style="edgeStyle=orthogonalEdgeStyle;rounded=0;orthogonalLoop=1;jettySize=auto;html=1;exitX=0.5;exitY=0;exitDx=0;exitDy=0;startArrow=classic;startFill=1;" edge="1" parent="1" source="KMlDWxls2vxEovdgFh5I-2" target="KMlDWxls2vxEovdgFh5I-11">
          <mxGeometry relative="1" as="geometry" />
        </mxCell>
        <mxCell id="KMlDWxls2vxEovdgFh5I-2" value="边缘服务器" style="ellipse;whiteSpace=wrap;html=1;aspect=fixed;fillColor=#b1ddf0;strokeColor=#10739e;" vertex="1" parent="1">
          <mxGeometry x="506" y="680" width="80" height="80" as="geometry" />
        </mxCell>
        <mxCell id="KMlDWxls2vxEovdgFh5I-23" style="edgeStyle=orthogonalEdgeStyle;rounded=0;orthogonalLoop=1;jettySize=auto;html=1;exitX=0;exitY=0;exitDx=0;exitDy=0;entryX=0.5;entryY=1;entryDx=0;entryDy=0;startArrow=classic;startFill=1;" edge="1" parent="1" source="KMlDWxls2vxEovdgFh5I-3" target="KMlDWxls2vxEovdgFh5I-10">
          <mxGeometry relative="1" as="geometry">
            <Array as="points">
              <mxPoint x="780" y="472" />
              <mxPoint x="780" y="210" />
            </Array>
          </mxGeometry>
        </mxCell>
        <mxCell id="KMlDWxls2vxEovdgFh5I-3" value="边缘服务器" style="ellipse;whiteSpace=wrap;html=1;aspect=fixed;fillColor=#b1ddf0;strokeColor=#10739e;" vertex="1" parent="1">
          <mxGeometry x="1000" y="460" width="80" height="80" as="geometry" />
        </mxCell>
        <mxCell id="KMlDWxls2vxEovdgFh5I-20" style="edgeStyle=orthogonalEdgeStyle;rounded=0;orthogonalLoop=1;jettySize=auto;html=1;exitX=1;exitY=0.5;exitDx=0;exitDy=0;startArrow=classic;startFill=1;entryX=0;entryY=1;entryDx=0;entryDy=0;" edge="1" parent="1" source="KMlDWxls2vxEovdgFh5I-4" target="KMlDWxls2vxEovdgFh5I-11">
          <mxGeometry relative="1" as="geometry">
            <Array as="points">
              <mxPoint x="330" y="520" />
              <mxPoint x="330" y="490" />
            </Array>
          </mxGeometry>
        </mxCell>
        <mxCell id="KMlDWxls2vxEovdgFh5I-4" value="边缘服务器" style="ellipse;whiteSpace=wrap;html=1;aspect=fixed;fillColor=#b1ddf0;strokeColor=#10739e;" vertex="1" parent="1">
          <mxGeometry x="90" y="480" width="80" height="80" as="geometry" />
        </mxCell>
        <mxCell id="KMlDWxls2vxEovdgFh5I-18" style="edgeStyle=orthogonalEdgeStyle;rounded=0;orthogonalLoop=1;jettySize=auto;html=1;exitX=0;exitY=0.5;exitDx=0;exitDy=0;entryX=1;entryY=0.5;entryDx=0;entryDy=0;endArrow=classic;endFill=1;startArrow=classic;startFill=1;" edge="1" parent="1" source="KMlDWxls2vxEovdgFh5I-5" target="KMlDWxls2vxEovdgFh5I-10">
          <mxGeometry relative="1" as="geometry" />
        </mxCell>
        <mxCell id="KMlDWxls2vxEovdgFh5I-5" value="边缘服务器" style="ellipse;whiteSpace=wrap;html=1;aspect=fixed;fillColor=#b1ddf0;strokeColor=#10739e;" vertex="1" parent="1">
          <mxGeometry x="1010" y="136" width="80" height="80" as="geometry" />
        </mxCell>
        <mxCell id="KMlDWxls2vxEovdgFh5I-6" value="云服务器" style="ellipse;shape=cloud;whiteSpace=wrap;html=1;fillColor=#bac8d3;strokeColor=#23445d;" vertex="1" parent="1">
          <mxGeometry x="490" y="270" width="120" height="80" as="geometry" />
        </mxCell>
        <mxCell id="KMlDWxls2vxEovdgFh5I-16" style="edgeStyle=orthogonalEdgeStyle;rounded=0;orthogonalLoop=1;jettySize=auto;html=1;exitX=0.5;exitY=1;exitDx=0;exitDy=0;entryX=0.5;entryY=0;entryDx=0;entryDy=0;startArrow=classic;startFill=1;" edge="1" parent="1" source="KMlDWxls2vxEovdgFh5I-7" target="KMlDWxls2vxEovdgFh5I-9">
          <mxGeometry relative="1" as="geometry" />
        </mxCell>
        <mxCell id="KMlDWxls2vxEovdgFh5I-7" value="边缘服务器" style="ellipse;whiteSpace=wrap;html=1;aspect=fixed;fillColor=#b1ddf0;strokeColor=#10739e;" vertex="1" parent="1">
          <mxGeometry x="260" y="-100" width="80" height="80" as="geometry" />
        </mxCell>
        <mxCell id="KMlDWxls2vxEovdgFh5I-17" style="edgeStyle=orthogonalEdgeStyle;rounded=0;orthogonalLoop=1;jettySize=auto;html=1;exitX=0.5;exitY=1;exitDx=0;exitDy=0;entryX=0.5;entryY=0;entryDx=0;entryDy=0;startArrow=classic;startFill=1;" edge="1" parent="1" source="KMlDWxls2vxEovdgFh5I-8" target="KMlDWxls2vxEovdgFh5I-10">
          <mxGeometry relative="1" as="geometry" />
        </mxCell>
        <mxCell id="KMlDWxls2vxEovdgFh5I-8" value="边缘服务器" style="ellipse;whiteSpace=wrap;html=1;aspect=fixed;fillColor=#b1ddf0;strokeColor=#10739e;" vertex="1" parent="1">
          <mxGeometry x="760" y="-110" width="80" height="80" as="geometry" />
        </mxCell>
        <mxCell id="KMlDWxls2vxEovdgFh5I-13" style="edgeStyle=orthogonalEdgeStyle;rounded=0;orthogonalLoop=1;jettySize=auto;html=1;endArrow=classic;endFill=1;startArrow=classic;startFill=1;" edge="1" parent="1" source="KMlDWxls2vxEovdgFh5I-9" target="KMlDWxls2vxEovdgFh5I-10">
          <mxGeometry relative="1" as="geometry" />
        </mxCell>
        <mxCell id="KMlDWxls2vxEovdgFh5I-9" value="网络基站" style="ellipse;whiteSpace=wrap;html=1;fillColor=#cdeb8b;strokeColor=#36393d;" vertex="1" parent="1">
          <mxGeometry x="300" y="140" width="100" height="70" as="geometry" />
        </mxCell>
        <mxCell id="KMlDWxls2vxEovdgFh5I-14" style="edgeStyle=orthogonalEdgeStyle;rounded=0;orthogonalLoop=1;jettySize=auto;html=1;exitX=0.5;exitY=1;exitDx=0;exitDy=0;entryX=1;entryY=0.5;entryDx=0;entryDy=0;startArrow=classic;startFill=1;" edge="1" parent="1" source="KMlDWxls2vxEovdgFh5I-10" target="KMlDWxls2vxEovdgFh5I-11">
          <mxGeometry relative="1" as="geometry" />
        </mxCell>
        <mxCell id="KMlDWxls2vxEovdgFh5I-10" value="网络基站" style="ellipse;whiteSpace=wrap;html=1;fillColor=#cdeb8b;strokeColor=#36393d;" vertex="1" parent="1">
          <mxGeometry x="710" y="140" width="100" height="70" as="geometry" />
        </mxCell>
        <mxCell id="KMlDWxls2vxEovdgFh5I-15" style="edgeStyle=orthogonalEdgeStyle;rounded=0;orthogonalLoop=1;jettySize=auto;html=1;exitX=0;exitY=0.5;exitDx=0;exitDy=0;entryX=0.5;entryY=1;entryDx=0;entryDy=0;startArrow=classic;startFill=1;" edge="1" parent="1" source="KMlDWxls2vxEovdgFh5I-11" target="KMlDWxls2vxEovdgFh5I-9">
          <mxGeometry relative="1" as="geometry" />
        </mxCell>
        <mxCell id="KMlDWxls2vxEovdgFh5I-11" value="网络基站" style="ellipse;whiteSpace=wrap;html=1;fillColor=#cdeb8b;strokeColor=#36393d;" vertex="1" parent="1">
          <mxGeometry x="497" y="430" width="100" height="70" as="geometry" />
        </mxCell>
        <mxCell id="KMlDWxls2vxEovdgFh5I-24" style="edgeStyle=orthogonalEdgeStyle;rounded=0;orthogonalLoop=1;jettySize=auto;html=1;exitX=1;exitY=1;exitDx=0;exitDy=0;entryX=0.07;entryY=0.4;entryDx=0;entryDy=0;entryPerimeter=0;startArrow=classic;startFill=1;" edge="1" parent="1" source="KMlDWxls2vxEovdgFh5I-9" target="KMlDWxls2vxEovdgFh5I-6">
          <mxGeometry relative="1" as="geometry" />
        </mxCell>
        <mxCell id="KMlDWxls2vxEovdgFh5I-26" style="edgeStyle=orthogonalEdgeStyle;rounded=0;orthogonalLoop=1;jettySize=auto;html=1;exitX=0;exitY=1;exitDx=0;exitDy=0;entryX=0.88;entryY=0.25;entryDx=0;entryDy=0;entryPerimeter=0;startArrow=classic;startFill=1;" edge="1" parent="1" source="KMlDWxls2vxEovdgFh5I-10" target="KMlDWxls2vxEovdgFh5I-6">
          <mxGeometry relative="1" as="geometry" />
        </mxCell>
        <mxCell id="KMlDWxls2vxEovdgFh5I-27" style="edgeStyle=orthogonalEdgeStyle;rounded=0;orthogonalLoop=1;jettySize=auto;html=1;exitX=0.5;exitY=0;exitDx=0;exitDy=0;entryX=0.474;entryY=0.987;entryDx=0;entryDy=0;entryPerimeter=0;startArrow=classic;startFill=1;" edge="1" parent="1" source="KMlDWxls2vxEovdgFh5I-11" target="KMlDWxls2vxEovdgFh5I-6">
          <mxGeometry relative="1" as="geometry" />
        </mxCell>
        <mxCell id="KMlDWxls2vxEovdgFh5I-28" value="Actor" style="shape=umlActor;verticalLabelPosition=bottom;verticalAlign=top;html=1;outlineConnect=0;" vertex="1" parent="1">
          <mxGeometry x="100" y="670" width="30" height="60" as="geometry" />
        </mxCell>
        <mxCell id="KMlDWxls2vxEovdgFh5I-31" value="" style="endArrow=classic;startArrow=classic;html=1;rounded=0;exitX=0.75;exitY=0.1;exitDx=0;exitDy=0;exitPerimeter=0;entryX=0;entryY=1;entryDx=0;entryDy=0;" edge="1" parent="1" source="KMlDWxls2vxEovdgFh5I-28" target="KMlDWxls2vxEovdgFh5I-11">
          <mxGeometry width="50" height="50" relative="1" as="geometry">
            <mxPoint x="160" y="680" as="sourcePoint" />
            <mxPoint x="210" y="630" as="targetPoint" />
          </mxGeometry>
        </mxCell>
        <mxCell id="KMlDWxls2vxEovdgFh5I-32" value="" style="endArrow=classic;dashed=1;html=1;strokeWidth=4;rounded=0;entryX=0.5;entryY=1;entryDx=0;entryDy=0;exitX=0.5;exitY=0;exitDx=0;exitDy=0;exitPerimeter=0;startArrow=classic;startFill=1;endFill=1;" edge="1" parent="1" source="KMlDWxls2vxEovdgFh5I-28" target="KMlDWxls2vxEovdgFh5I-4">
          <mxGeometry width="50" height="50" relative="1" as="geometry">
            <mxPoint x="70" y="670" as="sourcePoint" />
            <mxPoint x="120" y="620" as="targetPoint" />
          </mxGeometry>
        </mxCell>
        <mxCell id="KMlDWxls2vxEovdgFh5I-33" value="Actor" style="shape=umlActor;verticalLabelPosition=bottom;verticalAlign=top;html=1;outlineConnect=0;" vertex="1" parent="1">
          <mxGeometry x="860" y="630" width="30" height="60" as="geometry" />
        </mxCell>
        <mxCell id="KMlDWxls2vxEovdgFh5I-34" value="" style="endArrow=classic;startArrow=classic;html=1;rounded=0;entryX=0.5;entryY=0;entryDx=0;entryDy=0;entryPerimeter=0;exitX=1;exitY=1;exitDx=0;exitDy=0;" edge="1" parent="1" source="KMlDWxls2vxEovdgFh5I-10" target="KMlDWxls2vxEovdgFh5I-33">
          <mxGeometry width="50" height="50" relative="1" as="geometry">
            <mxPoint x="720" y="620" as="sourcePoint" />
            <mxPoint x="770" y="570" as="targetPoint" />
          </mxGeometry>
        </mxCell>
        <mxCell id="KMlDWxls2vxEovdgFh5I-35" value="" style="endArrow=classic;dashed=1;html=1;strokeWidth=4;rounded=0;exitX=0.96;exitY=0.7;exitDx=0;exitDy=0;entryX=0;entryY=0.3333333333333333;entryDx=0;entryDy=0;entryPerimeter=0;exitPerimeter=0;startArrow=classic;startFill=1;endFill=1;" edge="1" parent="1" source="KMlDWxls2vxEovdgFh5I-6" target="KMlDWxls2vxEovdgFh5I-33">
          <mxGeometry width="50" height="50" relative="1" as="geometry">
            <mxPoint x="670" y="700" as="sourcePoint" />
            <mxPoint x="720" y="650" as="targetPoint" />
          </mxGeometry>
        </mxCell>
        <mxCell id="KMlDWxls2vxEovdgFh5I-37" value="任务" style="whiteSpace=wrap;html=1;aspect=fixed;" vertex="1" parent="1">
          <mxGeometry x="180" y="650" width="50" height="50" as="geometry" />
        </mxCell>
        <mxCell id="KMlDWxls2vxEovdgFh5I-38" value="" style="shape=callout;whiteSpace=wrap;html=1;perimeter=calloutPerimeter;" vertex="1" parent="1">
          <mxGeometry x="50" y="320" width="150" height="160" as="geometry" />
        </mxCell>
        <mxCell id="KMlDWxls2vxEovdgFh5I-39" value="执行容器" style="shape=cylinder3;whiteSpace=wrap;html=1;boundedLbl=1;backgroundOutline=1;size=15;fillColor=#ffcc99;strokeColor=#36393d;" vertex="1" parent="1">
          <mxGeometry x="60" y="330" width="60" height="60" as="geometry" />
        </mxCell>
        <mxCell id="KMlDWxls2vxEovdgFh5I-40" value="执行容器" style="shape=cylinder3;whiteSpace=wrap;html=1;boundedLbl=1;backgroundOutline=1;size=15;fillColor=#ffcc99;strokeColor=#36393d;" vertex="1" parent="1">
          <mxGeometry x="130" y="330" width="60" height="60" as="geometry" />
        </mxCell>
        <mxCell id="KMlDWxls2vxEovdgFh5I-41" value="" style="endArrow=classic;html=1;rounded=0;exitX=1;exitY=0.25;exitDx=0;exitDy=0;entryX=0;entryY=1;entryDx=0;entryDy=0;fillColor=#b1ddf0;strokeColor=#10739e;strokeWidth=3;" edge="1" parent="1" source="KMlDWxls2vxEovdgFh5I-37" target="KMlDWxls2vxEovdgFh5I-11">
          <mxGeometry width="50" height="50" relative="1" as="geometry">
            <mxPoint x="340" y="610" as="sourcePoint" />
            <mxPoint x="460" y="540" as="targetPoint" />
          </mxGeometry>
        </mxCell>
        <mxCell id="KMlDWxls2vxEovdgFh5I-42" value="" style="endArrow=classic;html=1;rounded=0;entryX=0.855;entryY=1;entryDx=0;entryDy=-4.35;entryPerimeter=0;fillColor=#b0e3e6;strokeColor=#0e8088;strokeWidth=3;" edge="1" parent="1" target="KMlDWxls2vxEovdgFh5I-40">
          <mxGeometry width="50" height="50" relative="1" as="geometry">
            <mxPoint x="500" y="490" as="sourcePoint" />
            <mxPoint x="310" y="430" as="targetPoint" />
          </mxGeometry>
        </mxCell>
        <mxCell id="KMlDWxls2vxEovdgFh5I-44" value="&lt;font style=&quot;font-size: 28px;&quot;&gt;全局时间控制器&lt;/font&gt;" style="ellipse;whiteSpace=wrap;html=1;" vertex="1" parent="1">
          <mxGeometry x="416" y="-270" width="260" height="150" as="geometry" />
        </mxCell>
        <mxCell id="KMlDWxls2vxEovdgFh5I-46" value="" style="endArrow=none;dashed=1;html=1;dashPattern=1 3;strokeWidth=2;rounded=0;entryX=0;entryY=1;entryDx=0;entryDy=0;exitX=0.5;exitY=0;exitDx=0;exitDy=0;" edge="1" parent="1" source="KMlDWxls2vxEovdgFh5I-7" target="KMlDWxls2vxEovdgFh5I-44">
          <mxGeometry width="50" height="50" relative="1" as="geometry">
            <mxPoint x="350" y="-150" as="sourcePoint" />
            <mxPoint x="400" y="-200" as="targetPoint" />
          </mxGeometry>
        </mxCell>
        <mxCell id="KMlDWxls2vxEovdgFh5I-47" value="" style="endArrow=none;dashed=1;html=1;dashPattern=1 3;strokeWidth=2;rounded=0;entryX=0.5;entryY=1;entryDx=0;entryDy=0;exitX=0.4;exitY=0.1;exitDx=0;exitDy=0;exitPerimeter=0;" edge="1" parent="1" source="KMlDWxls2vxEovdgFh5I-6" target="KMlDWxls2vxEovdgFh5I-44">
          <mxGeometry width="50" height="50" relative="1" as="geometry">
            <mxPoint x="310" y="-90" as="sourcePoint" />
            <mxPoint x="418" y="-232" as="targetPoint" />
          </mxGeometry>
        </mxCell>
        <mxCell id="KMlDWxls2vxEovdgFh5I-48" value="" style="endArrow=none;dashed=1;html=1;dashPattern=1 3;strokeWidth=2;rounded=0;exitX=0.5;exitY=0;exitDx=0;exitDy=0;exitPerimeter=0;entryX=0.5;entryY=1;entryDx=0;entryDy=0;" edge="1" parent="1" source="KMlDWxls2vxEovdgFh5I-28" target="KMlDWxls2vxEovdgFh5I-44">
          <mxGeometry width="50" height="50" relative="1" as="geometry">
            <mxPoint x="50" y="660" as="sourcePoint" />
            <mxPoint x="100" y="610" as="targetPoint" />
          </mxGeometry>
        </mxCell>
        <mxCell id="KMlDWxls2vxEovdgFh5I-49" value="" style="endArrow=none;dashed=1;html=1;dashPattern=1 3;strokeWidth=2;rounded=0;exitX=0;exitY=0;exitDx=0;exitDy=0;entryX=1;entryY=1;entryDx=0;entryDy=0;" edge="1" parent="1" source="KMlDWxls2vxEovdgFh5I-10" target="KMlDWxls2vxEovdgFh5I-44">
          <mxGeometry width="50" height="50" relative="1" as="geometry">
            <mxPoint x="950" y="350" as="sourcePoint" />
            <mxPoint x="1000" y="300" as="targetPoint" />
          </mxGeometry>
        </mxCell>
        <mxCell id="KMlDWxls2vxEovdgFh5I-50" value="" style="endArrow=none;dashed=1;html=1;dashPattern=1 3;strokeWidth=2;rounded=0;exitX=0.5;exitY=0;exitDx=0;exitDy=0;entryX=1;entryY=0.5;entryDx=0;entryDy=0;" edge="1" parent="1" source="KMlDWxls2vxEovdgFh5I-3" target="KMlDWxls2vxEovdgFh5I-44">
          <mxGeometry width="50" height="50" relative="1" as="geometry">
            <mxPoint x="950" y="430" as="sourcePoint" />
            <mxPoint x="1000" y="380" as="targetPoint" />
          </mxGeometry>
        </mxCell>
        <mxCell id="KMlDWxls2vxEovdgFh5I-51" value="&lt;font style=&quot;font-size: 22px;&quot;&gt;移动策略&lt;br&gt;控制器&lt;/font&gt;" style="shape=hexagon;perimeter=hexagonPerimeter2;whiteSpace=wrap;html=1;fixedSize=1;" vertex="1" parent="1">
          <mxGeometry x="190" y="850" width="120" height="80" as="geometry" />
        </mxCell>
        <mxCell id="KMlDWxls2vxEovdgFh5I-52" value="" style="endArrow=none;dashed=1;html=1;dashPattern=1 3;strokeWidth=4;rounded=0;entryX=1;entryY=1;entryDx=0;entryDy=0;entryPerimeter=0;exitX=0.375;exitY=0;exitDx=0;exitDy=0;fillColor=#d0cee2;strokeColor=#56517e;" edge="1" parent="1" source="KMlDWxls2vxEovdgFh5I-51" target="KMlDWxls2vxEovdgFh5I-28">
          <mxGeometry width="50" height="50" relative="1" as="geometry">
            <mxPoint x="200" y="820" as="sourcePoint" />
            <mxPoint x="250" y="770" as="targetPoint" />
          </mxGeometry>
        </mxCell>
        <mxCell id="KMlDWxls2vxEovdgFh5I-54" value="&lt;font style=&quot;font-size: 22px;&quot;&gt;任务产生&lt;br&gt;控制器&lt;br&gt;&lt;/font&gt;" style="shape=hexagon;perimeter=hexagonPerimeter2;whiteSpace=wrap;html=1;fixedSize=1;" vertex="1" parent="1">
          <mxGeometry x="-62" y="850" width="120" height="80" as="geometry" />
        </mxCell>
        <mxCell id="KMlDWxls2vxEovdgFh5I-55" value="" style="endArrow=none;dashed=1;html=1;dashPattern=1 3;strokeWidth=4;rounded=0;entryX=0;entryY=1;entryDx=0;entryDy=0;entryPerimeter=0;exitX=0.625;exitY=0;exitDx=0;exitDy=0;fillColor=#d0cee2;strokeColor=#56517e;" edge="1" parent="1" source="KMlDWxls2vxEovdgFh5I-54" target="KMlDWxls2vxEovdgFh5I-28">
          <mxGeometry width="50" height="50" relative="1" as="geometry">
            <mxPoint x="217" y="858" as="sourcePoint" />
            <mxPoint x="140" y="740" as="targetPoint" />
          </mxGeometry>
        </mxCell>
        <mxCell id="KMlDWxls2vxEovdgFh5I-56" value="&lt;font style=&quot;font-size: 22px;&quot;&gt;路由策略&lt;br&gt;控制器&lt;/font&gt;" style="shape=hexagon;perimeter=hexagonPerimeter2;whiteSpace=wrap;html=1;fixedSize=1;dashed=1;strokeWidth=4;" vertex="1" parent="1">
          <mxGeometry x="90" y="30" width="120" height="80" as="geometry" />
        </mxCell>
        <mxCell id="KMlDWxls2vxEovdgFh5I-57" value="" style="endArrow=none;dashed=1;html=1;dashPattern=1 3;strokeWidth=4;rounded=0;entryX=0;entryY=0;entryDx=0;entryDy=0;exitX=1;exitY=0.75;exitDx=0;exitDy=0;fillColor=#d0cee2;strokeColor=#56517e;" edge="1" parent="1" source="KMlDWxls2vxEovdgFh5I-56" target="KMlDWxls2vxEovdgFh5I-9">
          <mxGeometry width="50" height="50" relative="1" as="geometry">
            <mxPoint x="190" y="180" as="sourcePoint" />
            <mxPoint x="277" y="60" as="targetPoint" />
          </mxGeometry>
        </mxCell>
        <mxCell id="KMlDWxls2vxEovdgFh5I-58" value="&lt;font style=&quot;font-size: 22px;&quot;&gt;任务调度&lt;br&gt;控制器&lt;/font&gt;" style="shape=hexagon;perimeter=hexagonPerimeter2;whiteSpace=wrap;html=1;fixedSize=1;" vertex="1" parent="1">
          <mxGeometry x="487" y="850" width="120" height="80" as="geometry" />
        </mxCell>
        <mxCell id="KMlDWxls2vxEovdgFh5I-59" value="" style="endArrow=none;dashed=1;html=1;dashPattern=1 3;strokeWidth=4;rounded=0;entryX=0.5;entryY=1;entryDx=0;entryDy=0;exitX=0.5;exitY=0;exitDx=0;exitDy=0;fillColor=#d0cee2;strokeColor=#56517e;" edge="1" parent="1" source="KMlDWxls2vxEovdgFh5I-58" target="KMlDWxls2vxEovdgFh5I-2">
          <mxGeometry width="50" height="50" relative="1" as="geometry">
            <mxPoint x="245" y="860" as="sourcePoint" />
            <mxPoint x="140" y="740" as="targetPoint" />
          </mxGeometry>
        </mxCell>
        <mxCell id="KMlDWxls2vxEovdgFh5I-61" value="&lt;font style=&quot;font-size: 61px;&quot;&gt;全局状态感知器&lt;/font&gt;" style="rounded=0;whiteSpace=wrap;html=1;" vertex="1" parent="1">
          <mxGeometry x="-230" y="240" width="120" height="514" as="geometry" />
        </mxCell>
        <mxCell id="KMlDWxls2vxEovdgFh5I-62" value="" style="endArrow=none;dashed=1;html=1;rounded=0;exitX=1;exitY=0;exitDx=0;exitDy=0;entryX=0;entryY=0.5;entryDx=0;entryDy=0;" edge="1" parent="1" source="KMlDWxls2vxEovdgFh5I-61" target="KMlDWxls2vxEovdgFh5I-1">
          <mxGeometry width="50" height="50" relative="1" as="geometry">
            <mxPoint x="-220" y="300" as="sourcePoint" />
            <mxPoint x="-170" y="250" as="targetPoint" />
          </mxGeometry>
        </mxCell>
        <mxCell id="KMlDWxls2vxEovdgFh5I-63" value="" style="endArrow=none;dashed=1;html=1;dashPattern=1 3;strokeWidth=2;rounded=0;exitX=1;exitY=0.75;exitDx=0;exitDy=0;entryX=0;entryY=0.5;entryDx=0;entryDy=0;" edge="1" parent="1" source="KMlDWxls2vxEovdgFh5I-61" target="KMlDWxls2vxEovdgFh5I-4">
          <mxGeometry width="50" height="50" relative="1" as="geometry">
            <mxPoint x="-150" y="570" as="sourcePoint" />
            <mxPoint x="-100" y="520" as="targetPoint" />
          </mxGeometry>
        </mxCell>
        <mxCell id="KMlDWxls2vxEovdgFh5I-64" value="" style="endArrow=none;dashed=1;html=1;dashPattern=1 3;strokeWidth=2;rounded=0;exitX=0;exitY=1;exitDx=0;exitDy=0;entryX=1;entryY=0.5;entryDx=0;entryDy=0;" edge="1" parent="1" source="KMlDWxls2vxEovdgFh5I-9" target="KMlDWxls2vxEovdgFh5I-61">
          <mxGeometry width="50" height="50" relative="1" as="geometry">
            <mxPoint x="-180" y="370" as="sourcePoint" />
            <mxPoint x="-130" y="320" as="targetPoint" />
          </mxGeometry>
        </mxCell>
        <mxCell id="KMlDWxls2vxEovdgFh5I-65" value="" style="endArrow=none;dashed=1;html=1;dashPattern=1 3;strokeWidth=2;rounded=0;exitX=1;exitY=1;exitDx=0;exitDy=0;entryX=0;entryY=0.3333333333333333;entryDx=0;entryDy=0;entryPerimeter=0;" edge="1" parent="1" source="KMlDWxls2vxEovdgFh5I-61" target="KMlDWxls2vxEovdgFh5I-28">
          <mxGeometry width="50" height="50" relative="1" as="geometry">
            <mxPoint x="-190" y="670" as="sourcePoint" />
            <mxPoint x="-140" y="620" as="targetPoint" />
          </mxGeometry>
        </mxCell>
        <mxCell id="KMlDWxls2vxEovdgFh5I-66" value="" style="endArrow=none;dashed=1;html=1;dashPattern=1 3;strokeWidth=2;rounded=0;entryX=0.13;entryY=0.77;entryDx=0;entryDy=0;entryPerimeter=0;" edge="1" parent="1" source="KMlDWxls2vxEovdgFh5I-61" target="KMlDWxls2vxEovdgFh5I-6">
          <mxGeometry width="50" height="50" relative="1" as="geometry">
            <mxPoint x="-80" y="570" as="sourcePoint" />
            <mxPoint x="-30" y="520" as="targetPoint" />
          </mxGeometry>
        </mxCell>
        <mxCell id="KMlDWxls2vxEovdgFh5I-67" value="" style="endArrow=none;dashed=1;html=1;dashPattern=1 3;strokeWidth=2;rounded=0;exitX=1;exitY=0.75;exitDx=0;exitDy=0;entryX=0;entryY=0.5;entryDx=0;entryDy=0;" edge="1" parent="1" source="KMlDWxls2vxEovdgFh5I-61" target="KMlDWxls2vxEovdgFh5I-37">
          <mxGeometry width="50" height="50" relative="1" as="geometry">
            <mxPoint x="-20" y="660" as="sourcePoint" />
            <mxPoint x="30" y="610" as="targetPoint" />
          </mxGeometry>
        </mxCell>
        <mxCell id="KMlDWxls2vxEovdgFh5I-68" value="&lt;font style=&quot;font-size: 32px;&quot;&gt;World API 层&lt;/font&gt;" style="rounded=1;whiteSpace=wrap;html=1;" vertex="1" parent="1">
          <mxGeometry x="-530" y="1180" width="1570" height="60" as="geometry" />
        </mxCell>
        <mxCell id="KMlDWxls2vxEovdgFh5I-69" value="" style="endArrow=classic;startArrow=classic;html=1;rounded=0;entryX=0.5;entryY=1;entryDx=0;entryDy=0;exitX=0.25;exitY=0;exitDx=0;exitDy=0;strokeWidth=6;" edge="1" parent="1" source="KMlDWxls2vxEovdgFh5I-68" target="KMlDWxls2vxEovdgFh5I-61">
          <mxGeometry width="50" height="50" relative="1" as="geometry">
            <mxPoint x="-200" y="910" as="sourcePoint" />
            <mxPoint x="-150" y="860" as="targetPoint" />
          </mxGeometry>
        </mxCell>
        <mxCell id="KMlDWxls2vxEovdgFh5I-71" value="&lt;font style=&quot;font-size: 32px;&quot;&gt;可移动目标控制器API层&lt;/font&gt;" style="rounded=1;whiteSpace=wrap;html=1;" vertex="1" parent="1">
          <mxGeometry x="-111" y="1040" width="440" height="60" as="geometry" />
        </mxCell>
        <mxCell id="KMlDWxls2vxEovdgFh5I-72" value="&lt;font style=&quot;font-size: 32px;&quot;&gt;边缘服务器控制器API层&lt;/font&gt;" style="rounded=1;whiteSpace=wrap;html=1;" vertex="1" parent="1">
          <mxGeometry x="487" y="1030" width="440" height="60" as="geometry" />
        </mxCell>
        <mxCell id="KMlDWxls2vxEovdgFh5I-73" value="" style="endArrow=classic;startArrow=classic;html=1;rounded=0;entryX=0.5;entryY=1;entryDx=0;entryDy=0;strokeWidth=6;" edge="1" parent="1" source="KMlDWxls2vxEovdgFh5I-68" target="KMlDWxls2vxEovdgFh5I-71">
          <mxGeometry width="50" height="50" relative="1" as="geometry">
            <mxPoint x="70" y="1380" as="sourcePoint" />
            <mxPoint x="120" y="1330" as="targetPoint" />
          </mxGeometry>
        </mxCell>
        <mxCell id="KMlDWxls2vxEovdgFh5I-74" value="" style="endArrow=classic;startArrow=classic;html=1;rounded=0;entryX=0.552;entryY=1;entryDx=0;entryDy=0;entryPerimeter=0;exitX=0.75;exitY=0;exitDx=0;exitDy=0;strokeWidth=6;" edge="1" parent="1" source="KMlDWxls2vxEovdgFh5I-68" target="KMlDWxls2vxEovdgFh5I-72">
          <mxGeometry width="50" height="50" relative="1" as="geometry">
            <mxPoint x="690" y="1180" as="sourcePoint" />
            <mxPoint x="740" y="1130" as="targetPoint" />
          </mxGeometry>
        </mxCell>
        <mxCell id="KMlDWxls2vxEovdgFh5I-78" value="&lt;font style=&quot;font-size: 42px;&quot;&gt;client&lt;/font&gt;" style="ellipse;whiteSpace=wrap;html=1;" vertex="1" parent="1">
          <mxGeometry x="65" y="1360" width="390" height="160" as="geometry" />
        </mxCell>
        <mxCell id="KMlDWxls2vxEovdgFh5I-79" value="" style="endArrow=classic;startArrow=classic;html=1;rounded=0;exitX=0.5;exitY=0;exitDx=0;exitDy=0;" edge="1" parent="1" source="KMlDWxls2vxEovdgFh5I-78">
          <mxGeometry width="50" height="50" relative="1" as="geometry">
            <mxPoint x="838" y="1300" as="sourcePoint" />
            <mxPoint x="260" y="1240" as="targetPoint" />
          </mxGeometry>
        </mxCell>
        <mxCell id="KMlDWxls2vxEovdgFh5I-80" value="" style="endArrow=classic;startArrow=classic;html=1;rounded=0;entryX=0.375;entryY=1;entryDx=0;entryDy=0;exitX=0.25;exitY=0;exitDx=0;exitDy=0;strokeWidth=4;" edge="1" parent="1" source="KMlDWxls2vxEovdgFh5I-71" target="KMlDWxls2vxEovdgFh5I-54">
          <mxGeometry width="50" height="50" relative="1" as="geometry">
            <mxPoint x="70" y="1000" as="sourcePoint" />
            <mxPoint x="120" y="950" as="targetPoint" />
          </mxGeometry>
        </mxCell>
        <mxCell id="KMlDWxls2vxEovdgFh5I-81" value="" style="endArrow=classic;startArrow=classic;html=1;rounded=0;entryX=0.375;entryY=1;entryDx=0;entryDy=0;exitX=0.75;exitY=0;exitDx=0;exitDy=0;strokeWidth=4;" edge="1" parent="1" source="KMlDWxls2vxEovdgFh5I-71" target="KMlDWxls2vxEovdgFh5I-51">
          <mxGeometry width="50" height="50" relative="1" as="geometry">
            <mxPoint x="25" y="1050" as="sourcePoint" />
            <mxPoint x="-7" y="940" as="targetPoint" />
          </mxGeometry>
        </mxCell>
        <mxCell id="KMlDWxls2vxEovdgFh5I-82" value="" style="endArrow=classic;startArrow=classic;html=1;rounded=0;entryX=0.625;entryY=1;entryDx=0;entryDy=0;exitX=0.25;exitY=0;exitDx=0;exitDy=0;strokeWidth=4;" edge="1" parent="1" source="KMlDWxls2vxEovdgFh5I-72" target="KMlDWxls2vxEovdgFh5I-58">
          <mxGeometry width="50" height="50" relative="1" as="geometry">
            <mxPoint x="229" y="1050" as="sourcePoint" />
            <mxPoint x="245" y="940" as="targetPoint" />
          </mxGeometry>
        </mxCell>
        <mxCell id="KMlDWxls2vxEovdgFh5I-83" value="&lt;font style=&quot;font-size: 22px;&quot;&gt;全局配置器&lt;/font&gt;" style="rounded=0;whiteSpace=wrap;html=1;" vertex="1" parent="1">
          <mxGeometry x="815" y="850" width="120" height="60" as="geometry" />
        </mxCell>
        <mxCell id="KMlDWxls2vxEovdgFh5I-84" value="" style="endArrow=none;dashed=1;html=1;dashPattern=1 3;strokeWidth=2;rounded=0;exitX=0.5;exitY=0;exitDx=0;exitDy=0;entryX=0;entryY=1;entryDx=0;entryDy=0;entryPerimeter=0;" edge="1" parent="1" source="KMlDWxls2vxEovdgFh5I-83" target="KMlDWxls2vxEovdgFh5I-33">
          <mxGeometry width="50" height="50" relative="1" as="geometry">
            <mxPoint x="870" y="830" as="sourcePoint" />
            <mxPoint x="920" y="780" as="targetPoint" />
          </mxGeometry>
        </mxCell>
        <mxCell id="KMlDWxls2vxEovdgFh5I-85" value="" style="endArrow=none;dashed=1;html=1;dashPattern=1 3;strokeWidth=2;rounded=0;exitX=0.75;exitY=0;exitDx=0;exitDy=0;entryX=0.5;entryY=1;entryDx=0;entryDy=0;" edge="1" parent="1" source="KMlDWxls2vxEovdgFh5I-83" target="KMlDWxls2vxEovdgFh5I-3">
          <mxGeometry width="50" height="50" relative="1" as="geometry">
            <mxPoint x="950" y="830" as="sourcePoint" />
            <mxPoint x="1000" y="780" as="targetPoint" />
          </mxGeometry>
        </mxCell>
        <mxCell id="KMlDWxls2vxEovdgFh5I-86" value="" style="endArrow=none;dashed=1;html=1;dashPattern=1 3;strokeWidth=2;rounded=0;exitX=0;exitY=0.25;exitDx=0;exitDy=0;entryX=1;entryY=1;entryDx=0;entryDy=0;" edge="1" parent="1" source="KMlDWxls2vxEovdgFh5I-83" target="KMlDWxls2vxEovdgFh5I-11">
          <mxGeometry width="50" height="50" relative="1" as="geometry">
            <mxPoint x="740" y="840" as="sourcePoint" />
            <mxPoint x="790" y="790" as="targetPoint" />
          </mxGeometry>
        </mxCell>
        <mxCell id="KMlDWxls2vxEovdgFh5I-87" value="" style="endArrow=none;dashed=1;html=1;dashPattern=1 3;strokeWidth=2;rounded=0;exitX=0.25;exitY=0;exitDx=0;exitDy=0;entryX=0.8;entryY=0.8;entryDx=0;entryDy=0;entryPerimeter=0;" edge="1" parent="1" source="KMlDWxls2vxEovdgFh5I-83" target="KMlDWxls2vxEovdgFh5I-6">
          <mxGeometry width="50" height="50" relative="1" as="geometry">
            <mxPoint x="780" y="790" as="sourcePoint" />
            <mxPoint x="830" y="740" as="targetPoint" />
          </mxGeometry>
        </mxCell>
      </root>
    </mxGraphModel>
  </diagram>
</mxfile>
